# xmcd
#
# Track frame offsets: 
#        151
#        5906
#        21394
#        36919
#        52155
#        67388
#        77885
#        88285
#        105671
#        123040
#        143243
#        160339
#        177459
#        195627
#        213813
#        231310
#        248840
#        267031
#        285217
#        298100
#        310981
#
# Disc length: 4378 seconds
#
# Revision: 0
# Processed by: cddbd v1.5.2PL0 Copyright (c) Steve Scherf et al.
# Submitted via: ExactAudioCopy v0.95a4
#
DISCID=3f111815
DTITLE=Jacqueline Laufman and Dudley Laufman - White Mountain Reel
DYEAR=1900
DGENRE=Country
TTITLE0=Fanfare
TTITLE1=Big Circle for Little Kids
TTITLE2=All the way to Galway
TTITLE3=White Mountain Reel
TTITLE4=Molly in the Wood
TTITLE5=Marching through Georgia
TTITLE6=Marching through Georgia
TTITLE7=Low-Backed Car
TTITLE8=Low-Backed Car
TTITLE9=Paul Jones to Granny
TTITLE10=Virginia Reel
TTITLE11=Campbells are Coming
TTITLE12=Le Papillon
TTITLE13=Old Man and Woman
TTITLE14=Heel and Toe Longways
TTITLE15=Nelly Bly
TTITLE16=Portland Fancy
TTITLE17=Ralph Page's Typsy Parson
TTITLE18=Four Hand Reel
TTITLE19=Ashley's Ride
TTITLE20=Reel a Pitou
EXTD=
EXTT0=
EXTT1=
EXTT2=
EXTT3=
EXTT4=
EXTT5=
EXTT6=
EXTT7=
EXTT8=
EXTT9=
EXTT10=
EXTT11=
EXTT12=
EXTT13=
EXTT14=
EXTT15=
EXTT16=
EXTT17=
EXTT18=
EXTT19=
EXTT20=
PLAYORDER=
